<svg width="400" height="400" viewBox="0 0 400 400" fill="none" xmlns="http://www.w3.org/2000/svg">
<path d="M355.421 368.936V72.3459L345.552 55.2976C344.192 54.8493 342.851 54.617 341.419 54.617H202.023C193.064 54.617 185.803 63.5308 185.803 74.527V368.935C185.803 379.931 193.064 388.845 202.023 388.845H339.201C348.159 388.845 355.421 379.932 355.421 368.936V368.936Z" fill="#F6F9F9"/>
<path d="M355.608 121.453C353.366 121.453 351.296 120.553 349.623 119.03V368.936C349.623 379.932 342.361 388.845 333.403 388.845H383.78C392.738 388.845 400 379.932 400 368.936V126.526C400 124.799 399.817 123.095 399.465 121.453H355.608Z" fill="#F6F9F9"/>
<path d="M395.25 112.448L352.888 60.4493C350.842 57.9384 348.302 56.1886 345.552 55.2986V109.11C345.552 115.927 350.054 121.453 355.608 121.453H399.446C398.721 118.078 397.296 114.959 395.25 112.448V112.448Z" fill="#F9A08D"/>
<path d="M265.984 263.901C247.058 263.901 231.661 245 231.661 221.769C231.661 198.538 247.058 179.637 265.984 179.637C272.861 179.637 279.499 182.127 285.18 186.837C287.91 189.102 288.628 193.655 286.783 197.005C284.939 200.357 281.231 201.237 278.499 198.974C274.8 195.907 270.472 194.284 265.984 194.284C253.638 194.284 243.593 206.613 243.593 221.768C243.593 236.924 253.638 249.253 265.984 249.253C270.609 249.253 274.511 247.551 277.58 244.197C278.176 243.545 278.748 242.819 279.28 242.041C281.398 238.944 285.162 238.541 287.686 241.141C290.21 243.741 290.539 248.361 288.42 251.458C287.519 252.775 286.542 254.012 285.516 255.133C280.271 260.87 273.517 263.901 265.984 263.901V263.901Z" fill="#DDEAFB"/>
<path d="M327.94 264.391C327.933 264.391 327.927 264.391 327.921 264.391C325.38 264.382 323.123 262.397 322.297 259.448L302.556 188.935C301.485 185.11 303.144 180.943 306.26 179.629C309.375 178.314 312.77 180.349 313.841 184.175L327.996 234.733L342.469 184.05C343.558 180.232 346.964 178.224 350.072 179.561C353.182 180.898 354.819 185.078 353.729 188.894L333.57 259.491C332.732 262.426 330.473 264.391 327.94 264.391V264.391Z" fill="#DDEAFB"/>
<g clip-path="url(#clip0)">
<path d="M225.884 274.283V226.973H120.836V274.283L173.36 328.353L225.884 274.283Z" fill="#E6AF78"/>
<path d="M307.1 296.414L234.883 276.735C233.792 276.438 232.789 275.934 231.851 275.322L173.359 314.836L117.149 273.411C115.694 274.997 113.888 276.177 111.836 276.736L39.6194 296.415C29.0741 299.288 21.6216 310.185 21.6216 322.731V375.665C21.6216 383.131 26.8474 389.182 33.2936 389.182H313.424C319.871 389.182 325.096 383.13 325.096 375.665V322.731C325.097 310.185 317.645 299.287 307.1 296.414Z" fill="#4F82F5"/>
<path d="M120.836 226.973V276.889C187.002 304.497 225.884 235.401 225.884 235.401V226.972H120.836V226.973Z" fill="#D29B6E"/>
<path d="M97.4911 71.5233L102.577 201.097C103.051 213.201 108.177 224.427 116.547 231.697L140.677 252.657C146.739 257.921 154.111 260.767 161.687 260.767H185.032C192.609 260.767 199.981 257.921 206.042 252.657L230.173 231.697C238.543 224.426 243.668 213.202 244.143 201.097L249.228 71.5233C249.228 71.5233 97.4911 71.5233 97.4911 71.5233Z" fill="#F0C087"/>
<path d="M155.852 98.5577C179.197 98.5577 214.212 91.7991 222.518 71.5225H97.4911L102.577 201.096C103.051 213.201 108.177 224.425 116.547 231.696L140.678 252.656C146.74 257.92 154.111 260.767 161.688 260.767H173.36C161.688 260.767 138.344 233.731 138.344 199.938C138.344 183.411 138.344 139.11 138.344 118.834C138.344 112.075 144.18 98.5577 155.852 98.5577Z" fill="#E6AF78"/>
<path d="M64.468 345.318L26.6509 305.977C23.482 310.623 21.6242 316.471 21.6242 322.731V375.665C21.6242 383.131 26.8499 389.182 33.2961 389.182H74.1486V370.459C74.1479 360.867 70.6286 351.727 64.468 345.318Z" fill="#6D96F2" fill-opacity="0.71"/>
<path d="M282.253 345.318L320.07 305.977C323.239 310.623 325.097 316.471 325.097 322.731V375.665C325.097 383.131 319.871 389.182 313.425 389.182H272.573V370.459C272.573 360.867 276.092 351.727 282.253 345.318Z" fill="#6D96F2" fill-opacity="0.71"/>
<path d="M187.95 389.182H158.77L162.417 328.353H184.303L187.95 389.182Z" fill="#F9A08D"/>
<path d="M187.95 314.835H158.77V327.556C158.77 331.729 161.691 335.112 165.295 335.112H181.425C185.029 335.112 187.95 331.729 187.95 327.556V314.835H187.95Z" fill="#F9A08D"/>
<path d="M120.016 259.236L173.361 314.835C173.361 314.835 158.421 323.57 139.986 341.173C136.183 344.804 130.43 343.333 128.391 338.137L103.328 274.284L111.257 260.512C113.23 257.081 117.371 256.48 120.016 259.236Z" fill="#E4EAF6"/>
<path d="M226.704 259.236L173.36 314.835C173.36 314.835 188.299 323.57 206.735 341.173C210.538 344.804 216.29 343.333 218.33 338.137L243.392 274.284L235.464 260.512C233.49 257.081 229.349 256.48 226.704 259.236Z" fill="#E4EAF6"/>
<path d="M208.741 26.7466L214.212 71.5232C239.187 77.3079 242.786 122.699 243.304 135.663C243.398 138.016 244.047 140.288 245.149 142.267L254.678 159.386C254.678 159.386 251.417 131.084 266.35 112.075C266.351 112.075 271.478 -0.288554 208.741 26.7466Z" fill="#785550"/>
<path d="M260.532 156.504L253.943 187.025C253.163 190.642 250.357 193.179 247.136 193.179C243.597 193.179 240.613 190.128 240.174 186.061L236.804 154.845C235.902 146.489 241.527 139.109 248.798 139.109H248.804C256.669 139.11 262.439 147.668 260.532 156.504Z" fill="#F0C087"/>
<path d="M103.084 14.6368L111.716 21.4658C72.6882 54.837 79.9826 112.075 79.9826 112.075C91.6545 125.592 91.6545 159.386 91.6545 159.386L103.326 145.869C103.326 145.869 98.8221 106.821 120.834 91.7991C141.261 77.8593 159.133 85.0405 177.371 85.0405C226.248 85.0405 239.927 63.7081 237.556 37.7295C236.329 24.2873 218.582 -3.71336 173.359 -2.82288C155.109 -2.46378 120.836 3.93572 103.084 14.6368Z" fill="#694B4B"/>
<path d="M99.6796 79.1264C99.6796 79.1264 93.4787 50.824 111.716 21.4666C72.6882 54.8377 79.9826 112.076 79.9826 112.076C91.6545 125.593 91.6545 159.387 91.6545 159.387L103.326 145.869C103.326 145.869 98.8221 106.822 120.834 91.7999C141.261 77.86 159.133 85.0412 177.371 85.0412C185.32 85.0412 192.247 84.4249 198.417 83.3683C160.776 84.8292 138.588 51.8095 99.6796 79.1264Z" fill="#5A4146"/>
<path d="M86.1882 156.504L92.7765 187.025C93.5574 190.642 96.3633 193.179 99.5837 193.179C103.123 193.179 106.107 190.128 106.546 186.061L109.916 154.845C110.818 146.489 105.193 139.109 97.9216 139.109H97.9163C90.0513 139.11 84.2808 147.668 86.1882 156.504Z" fill="#E6AF78"/>
<path d="M249.229 375.664H208.377C205.153 375.664 202.541 378.69 202.541 382.422V389.181H255.065V382.422C255.065 378.69 252.451 375.664 249.229 375.664Z" fill="#E4EAF6"/>
</g>
<defs>
<clipPath id="clip0">
<rect width="345.395" height="400" fill="white"/>
</clipPath>
</defs>
</svg>
