<svg width="50" height="50" viewBox="0 0 50 50" fill="none" xmlns="http://www.w3.org/2000/svg">
<g clip-path="url(#clip0)">
<path d="M5.75792 18.3151C5.90059 18.4578 6.08789 18.5295 6.2752 18.5295C6.4625 18.5295 6.6498 18.4581 6.79285 18.3151C7.07857 18.0294 7.07857 17.5659 6.79285 17.2802L5.01596 15.5033L6.79285 13.7268C7.07857 13.4407 7.07857 12.9776 6.79285 12.6918C6.50713 12.4061 6.04364 12.4061 5.75792 12.6918L3.46375 14.986C3.32642 15.1233 3.24937 15.3095 3.24937 15.5033C3.24937 15.6974 3.32642 15.8836 3.46375 16.0209L5.75792 18.3151Z" fill="white"/>
<path d="M13.0196 15.5033L11.2427 17.2802C10.957 17.5659 10.957 18.0294 11.2431 18.3151C11.3858 18.4578 11.5731 18.5295 11.7604 18.5295C11.9477 18.5295 12.135 18.4578 12.2776 18.3151L14.5722 16.0206C14.8579 15.7348 14.8579 15.2714 14.5722 14.986L12.2776 12.6915C11.9919 12.4057 11.5288 12.4057 11.2431 12.6915C10.957 12.9776 10.957 13.4407 11.2431 13.7264L13.0196 15.5033Z" fill="white"/>
<path d="M7.92698 18.4787C8.01471 18.5131 8.1055 18.5295 8.19439 18.5295C8.48659 18.5295 8.7624 18.3532 8.8757 18.0652L10.6781 13.4765C10.8262 13.1004 10.6408 12.6758 10.2646 12.5278C9.88888 12.3802 9.46392 12.5652 9.3163 12.9413L7.51346 17.53C7.36583 17.9062 7.55085 18.3311 7.92698 18.4787Z" fill="white"/>
<path d="M4.39531 22.8226H9.32506C9.72904 22.8226 10.0567 22.4949 10.0567 22.0905C10.0567 21.6865 9.72904 21.3589 9.32506 21.3589H4.39531C3.99095 21.3589 3.66365 21.6865 3.66365 22.0905C3.66365 22.4949 3.99095 22.8226 4.39531 22.8226Z" fill="white"/>
<path d="M20.6792 21.3589H12.0121C11.6082 21.3589 11.2805 21.6865 11.2805 22.0905C11.2805 22.4949 11.6082 22.8226 12.0121 22.8226H20.6792C21.0835 22.8226 21.4112 22.4949 21.4112 22.0905C21.4112 21.6865 21.0835 21.3589 20.6792 21.3589Z" fill="white"/>
<path d="M4.39531 25.909H6.49531C6.89929 25.909 7.22697 25.5813 7.22697 25.177C7.22697 24.773 6.89929 24.4453 6.49531 24.4453H4.39531C3.99095 24.4453 3.66365 24.773 3.66365 25.177C3.66365 25.5813 3.99095 25.909 4.39531 25.909Z" fill="white"/>
<path d="M18.002 24.4453C17.5976 24.4453 17.2703 24.773 17.2703 25.177C17.2703 25.5813 17.5976 25.909 18.002 25.909H19.2807C19.6851 25.909 20.0127 25.5813 20.0127 25.177C20.0127 24.773 19.6851 24.4453 19.2807 24.4453H18.002Z" fill="white"/>
<path d="M16.076 25.177C16.076 24.773 15.7483 24.4453 15.3443 24.4453H9.06299C8.65863 24.4453 8.33133 24.773 8.33133 25.177C8.33133 25.5813 8.65863 25.909 9.06299 25.909H15.3443C15.7483 25.909 16.076 25.5813 16.076 25.177Z" fill="white"/>
<path d="M20.8695 25.177C20.8695 25.5813 21.1972 25.909 21.6012 25.909H23.9964C24.4008 25.909 24.7285 25.5813 24.7285 25.177C24.7285 24.773 24.4008 24.4453 23.9964 24.4453H21.6012C21.1972 24.4453 20.8695 24.773 20.8695 25.177Z" fill="white"/>
<path d="M16.8843 16.0904H19.4108C19.8151 16.0904 20.1428 15.7627 20.1428 15.3583C20.1428 14.9543 19.8151 14.6266 19.4108 14.6266H16.8843C16.4799 14.6266 16.1523 14.9543 16.1523 15.3583C16.1523 15.7627 16.4799 16.0904 16.8843 16.0904Z" fill="white"/>
<path d="M22.2405 16.0904H37.6562C38.0605 16.0904 38.3878 15.7627 38.3878 15.3583C38.3878 14.9543 38.0605 14.6266 37.6562 14.6266H22.2405C21.8362 14.6266 21.5085 14.9543 21.5085 15.3583C21.5085 15.7627 21.8362 16.0904 22.2405 16.0904V16.0904Z" fill="white"/>
<path d="M35.3147 17.8463H29.07C28.666 17.8463 28.3383 18.174 28.3383 18.5783C28.3383 18.9823 28.666 19.31 29.07 19.31H35.3147C35.7187 19.31 36.0464 18.9823 36.0464 18.5783C36.0464 18.174 35.7187 17.8463 35.3147 17.8463Z" fill="white"/>
<path d="M26.7285 17.8463H24.582C24.1776 17.8463 23.8503 18.174 23.8503 18.5783C23.8503 18.9823 24.1776 19.31 24.582 19.31H26.7285C27.1329 19.31 27.4602 18.9823 27.4602 18.5783C27.4602 18.174 27.1329 17.8463 26.7285 17.8463Z" fill="white"/>
<path d="M16.8843 19.31H22.1429C22.5469 19.31 22.8745 18.9823 22.8745 18.5783C22.8745 18.174 22.5469 17.8463 22.1429 17.8463H16.8843C16.4799 17.8463 16.1523 18.174 16.1523 18.5783C16.1523 18.9823 16.4799 19.31 16.8843 19.31Z" fill="white"/>
<path d="M15.3535 27.5059H10.4241C10.0197 27.5059 9.69204 27.8336 9.69204 28.2376C9.69204 28.6415 10.0197 28.9692 10.4241 28.9692H15.3535C15.7574 28.9692 16.0851 28.6415 16.0851 28.2376C16.0851 27.8336 15.7574 27.5059 15.3535 27.5059Z" fill="white"/>
<path d="M8.18256 27.5059H4.39531C3.99095 27.5059 3.66365 27.8336 3.66365 28.2376C3.66365 28.6415 3.99095 28.9692 4.39531 28.9692H8.18256C8.58692 28.9692 8.91422 28.6415 8.91422 28.2376C8.91422 27.8336 8.58692 27.5059 8.18256 27.5059Z" fill="white"/>
<path d="M24.2894 27.5059H17.8498C17.4454 27.5059 17.1181 27.8336 17.1181 28.2376C17.1181 28.6415 17.4454 28.9692 17.8498 28.9692H24.2894C24.6934 28.9692 25.0211 28.6415 25.0211 28.2376C25.0211 27.8336 24.6934 27.5059 24.2894 27.5059V27.5059Z" fill="white"/>
<path d="M32.998 23.7469H29.4767C29.0727 23.7469 28.745 24.0745 28.745 24.4785C28.745 24.8829 29.0727 25.2106 29.4767 25.2106H32.998C33.4024 25.2106 33.7297 24.8829 33.7297 24.4785C33.7297 24.0745 33.4024 23.7469 32.998 23.7469V23.7469Z" fill="white"/>
<path d="M39.1084 25.2106H44.0794C44.4837 25.2106 44.8114 24.8829 44.8114 24.4785C44.8114 24.0745 44.4837 23.7469 44.0794 23.7469H39.1084C38.7041 23.7469 38.3768 24.0745 38.3768 24.4785C38.3768 24.8829 38.7045 25.2106 39.1084 25.2106Z" fill="white"/>
<path d="M36.6228 23.7469H35.4837C35.0793 23.7469 34.7516 24.0745 34.7516 24.4785C34.7516 24.8829 35.0793 25.2106 35.4837 25.2106H36.6228C37.0271 25.2106 37.3544 24.8829 37.3544 24.4785C37.3544 24.0745 37.0271 23.7469 36.6228 23.7469Z" fill="white"/>
<path d="M29.4767 33.1849H32.998C33.4024 33.1849 33.7297 32.8576 33.7297 32.4532C33.7297 32.0492 33.4024 31.7215 32.998 31.7215H29.4767C29.0727 31.7215 28.745 32.0492 28.745 32.4532C28.745 32.8576 29.0727 33.1849 29.4767 33.1849V33.1849Z" fill="white"/>
<path d="M39.1084 33.1849H44.0794C44.4837 33.1849 44.8114 32.8576 44.8114 32.4532C44.8114 32.0492 44.4837 31.7215 44.0794 31.7215H39.1084C38.7041 31.7215 38.3768 32.0492 38.3768 32.4532C38.3768 32.8576 38.7045 33.1849 39.1084 33.1849Z" fill="white"/>
<path d="M35.4837 33.1849H36.6228C37.0271 33.1849 37.3548 32.8576 37.3548 32.4532C37.3548 32.0492 37.0271 31.7215 36.6228 31.7215H35.4837C35.0793 31.7215 34.752 32.0492 34.752 32.4532C34.752 32.8576 35.0793 33.1849 35.4837 33.1849Z" fill="white"/>
<path d="M32.998 39.6962H29.4767C29.0727 39.6962 28.745 40.0239 28.745 40.4278C28.745 40.8318 29.0727 41.1595 29.4767 41.1595H32.998C33.4024 41.1595 33.7297 40.8318 33.7297 40.4278C33.7297 40.0239 33.4024 39.6962 32.998 39.6962V39.6962Z" fill="white"/>
<path d="M44.0794 39.6962H39.1084C38.7041 39.6962 38.3768 40.0239 38.3768 40.4278C38.3768 40.8318 38.7041 41.1595 39.1084 41.1595H44.0794C44.4837 41.1595 44.8114 40.8318 44.8114 40.4278C44.8114 40.0239 44.4837 39.6962 44.0794 39.6962V39.6962Z" fill="white"/>
<path d="M36.6228 39.6962H35.4837C35.0793 39.6962 34.7516 40.0239 34.7516 40.4278C34.7516 40.8318 35.0793 41.1595 35.4837 41.1595H36.6228C37.0271 41.1595 37.3544 40.8318 37.3544 40.4278C37.3544 40.0239 37.0271 39.6962 36.6228 39.6962Z" fill="white"/>
<path d="M46.7798 0.0975647H3.22077C1.44502 0.0975647 7.62939e-06 1.5422 7.62939e-06 3.31833V38.7253C7.62939e-06 40.5011 1.44502 41.9457 3.22077 41.9457H5.97461C6.37859 41.9457 6.70627 41.6184 6.70627 41.2141C6.70627 40.8101 6.37859 40.4824 5.97461 40.4824H3.22077C2.25183 40.4824 1.46371 39.6943 1.46371 38.7253V35.9494H28.1236V37.2105H27.5434C26.7495 37.2105 26.1041 37.856 26.1041 38.6498V40.4824H10.4237C10.0197 40.4824 9.69205 40.8101 9.69205 41.2141C9.69205 41.6184 10.0197 41.9457 10.4237 41.9457H17.4596V44.5702H15.2501C13.7761 44.5702 12.5771 45.7696 12.5771 47.2432V48.824C12.5771 49.4966 13.1241 50.0436 13.7967 50.0436H36.1478C36.8204 50.0436 37.3674 49.4966 37.3674 48.824V47.2432C37.3674 45.7696 36.1684 44.5702 34.6944 44.5702H32.485V43.6452H46.0131C46.8065 43.6452 47.452 42.9997 47.452 42.2059V41.8614C48.8783 41.5303 49.9445 40.2505 49.9445 38.7253L49.9998 3.31794C50.0002 1.5422 48.5556 0.0975647 46.7798 0.0975647V0.0975647ZM27.5678 34.2072V30.6996H45.9887V34.2072H27.5678ZM29.5869 29.2359V27.6962H43.9691V29.2359H29.5869ZM43.9691 35.6705V37.2105H29.5869V35.6705H43.9691ZM18.9229 41.9457H26.1041V42.2063C26.1041 42.9997 26.7495 43.6452 27.5434 43.6452H31.0216V44.5702H18.9229V41.9457ZM34.6948 46.0339C35.3616 46.0339 35.9041 46.5764 35.9041 47.2432V48.5803H14.0404V47.2432C14.0404 46.5764 14.5833 46.0339 15.2501 46.0339H34.6948ZM45.9887 42.1815H27.5678V38.6742H45.9887V42.1815ZM48.4812 38.7253C48.4812 39.4341 48.0585 40.0448 47.4524 40.3222V38.6494C47.4524 37.856 46.8065 37.2105 46.0131 37.2105H45.4329V35.9494H48.4812V38.7253ZM48.4812 34.486H47.4283C47.4432 34.4033 47.4524 30.6752 47.4524 30.6752C47.4524 29.8813 46.8065 29.2359 46.0131 29.2359H45.4329V27.6962H46.0131C46.8065 27.6962 47.4524 27.0504 47.4524 26.257V22.7005C47.4524 21.907 46.8065 21.2612 46.0131 21.2612H41.8798C41.4755 21.2612 41.1482 21.5889 41.1482 21.9932C41.1482 22.3972 41.4755 22.7249 41.8798 22.7249H45.9887V26.2325H27.5678V22.7249H37.3266C37.7309 22.7249 38.0583 22.3972 38.0583 21.9932C38.0583 21.5889 37.7309 21.2612 37.3266 21.2612H27.5434C26.7495 21.2612 26.1041 21.907 26.1041 22.7005V26.257C26.1041 27.0504 26.7495 27.6962 27.5434 27.6962H28.1236V29.2359H27.5434C26.7495 29.2359 26.1041 29.8817 26.1041 30.6752C26.1041 30.6752 26.1132 34.4033 26.1281 34.486H1.46371V10.0517H48.4812V34.486ZM48.4812 8.58797H1.5175V3.31794C1.5175 2.34939 2.30562 1.56127 3.27456 1.56127H46.7241C47.6931 1.56127 48.4812 2.34939 48.4812 3.31833V8.58797Z" fill="white"/>
<path d="M5.39667 2.90634C4.21258 2.90634 3.24937 3.86956 3.24937 5.05364C3.24937 6.23773 4.21258 7.20132 5.39667 7.20132C6.58076 7.20132 7.54435 6.23773 7.54435 5.05364C7.54435 3.86956 6.58076 2.90634 5.39667 2.90634ZM5.39667 5.73762C5.01978 5.73762 4.71269 5.43092 4.71269 5.05364C4.71269 4.67675 5.01978 4.36966 5.39667 4.36966C5.77394 4.36966 6.08065 4.67675 6.08065 5.05364C6.08065 5.43092 5.77394 5.73762 5.39667 5.73762Z" fill="white"/>
<path d="M10.8643 2.90634C9.68022 2.90634 8.71662 3.86956 8.71662 5.05364C8.71662 6.23773 9.68022 7.20132 10.8643 7.20132C12.0484 7.20132 13.0116 6.23773 13.0116 5.05364C13.0116 3.86956 12.048 2.90634 10.8643 2.90634ZM10.8643 5.73762C10.487 5.73762 10.1803 5.43092 10.1803 5.05364C10.1803 4.67675 10.487 4.36966 10.8643 4.36966C11.2412 4.36966 11.5483 4.67675 11.5483 5.05364C11.5483 5.43092 11.2412 5.73762 10.8643 5.73762Z" fill="white"/>
<path d="M16.3315 2.90634C15.1475 2.90634 14.1842 3.86956 14.1842 5.05364C14.1842 6.23773 15.1475 7.20132 16.3315 7.20132C17.5156 7.20132 18.4792 6.23773 18.4792 5.05364C18.4792 3.86956 17.5156 2.90634 16.3315 2.90634ZM16.3315 5.73762C15.9546 5.73762 15.6476 5.43092 15.6476 5.05364C15.6476 4.67675 15.9546 4.36966 16.3315 4.36966C16.7088 4.36966 17.0155 4.67675 17.0155 5.05364C17.0155 5.43092 16.7088 5.73762 16.3315 5.73762Z" fill="white"/>
</g>
<defs>
<clipPath id="clip0">
<rect width="50" height="50" fill="white"/>
</clipPath>
</defs>
</svg>
