<svg width="50" height="50" viewBox="0 0 50 50" fill="none" xmlns="http://www.w3.org/2000/svg">
<g clip-path="url(#clip0)">
<path d="M25 11.6667C22.2385 11.6667 20 13.9053 20 16.6667C20.0027 19.427 22.2397 21.664 25 21.6667C27.7614 21.6667 29.9999 19.4282 29.9999 16.6667C29.9999 13.9053 27.7614 11.6667 25 11.6667ZM25 20.0001C23.159 20.0001 21.6666 18.5077 21.6666 16.6667C21.6666 14.8258 23.159 13.3334 25 13.3334C26.8409 13.3334 28.3333 14.8258 28.3333 16.6667C28.3333 18.5077 26.841 20.0001 25 20.0001Z" fill="white"/>
<path d="M33.9337 23.8746C33.6586 23.5991 33.3686 23.3389 33.0649 23.0951L33.0733 23.0709C35.8201 14.5944 32.7474 5.31588 25.4841 0.15433C25.1944 -0.0524403 24.8055 -0.0524403 24.5158 0.15433C17.2525 5.31588 14.1798 14.5944 16.9266 23.0709L16.935 23.0951C12.3525 26.7736 11.6196 33.4705 15.298 38.053C15.5417 38.3566 15.802 38.6466 16.0775 38.9218C16.2337 39.078 16.4456 39.1659 16.6666 39.1659C16.7561 39.1658 16.845 39.1514 16.93 39.1234C17.2295 39.0237 17.4468 38.7634 17.4916 38.4509L18.1208 34.0476C18.1797 33.6375 18.5307 33.3329 18.945 33.3326H21.4833L20.85 36.4993C20.7579 36.9502 21.0488 37.3904 21.4998 37.4824C21.5547 37.4936 21.6106 37.4993 21.6666 37.4993H28.3333C28.7935 37.4994 29.1667 37.1263 29.1668 36.6661C29.1668 36.6101 29.1612 36.5542 29.1499 36.4993L28.5166 33.3326H31.0549C31.4694 33.333 31.8207 33.638 31.8791 34.0484L32.5083 38.4509C32.5531 38.7634 32.7705 39.0237 33.0699 39.1234C33.1549 39.1514 33.2438 39.1658 33.3333 39.1659C33.5543 39.1659 33.7662 39.078 33.9224 38.9218C38.0808 34.7698 38.0858 28.0329 33.9337 23.8746ZM25 1.8686C27.0028 3.39651 28.6782 5.3114 29.9266 7.49942H20.0733C21.3217 5.3114 22.9971 3.39651 25 1.8686ZM18.945 31.666C17.7029 31.6713 16.6513 32.5838 16.4708 33.8127L16.11 36.3402C14.9966 34.6593 14.4831 32.6518 14.6525 30.6427H14.6516C14.8351 28.4104 15.8455 26.3271 17.485 24.801L19.69 31.666H18.945V31.666ZM22.6833 35.8327L23.1833 33.3327H26.8166L27.3166 35.8327H22.6833ZM21.4408 31.666L18.6975 23.1311L18.5141 22.5602C17.0934 18.1595 17.3501 13.3889 19.235 9.16608H30.7649C32.6498 13.3889 32.9066 18.1595 31.4858 22.5602L31.3024 23.1311L28.5591 31.666H21.4408ZM33.8899 36.3402L33.5291 33.8127C33.3486 32.5838 32.297 31.6713 31.0549 31.666H30.3099L32.5166 24.801C34.1551 26.3275 35.1647 28.4107 35.3474 30.6427C35.5169 32.6518 35.0034 34.6593 33.8899 36.3402Z" fill="white"/>
<path d="M21.6666 39.1V41.8167C19.643 41.199 17.4437 41.7367 15.9333 43.2183C14.6671 41.7116 12.8014 40.8392 10.8333 40.8333C10.2265 40.8333 9.62279 40.9175 9.03915 41.0833C8.36623 37.0797 4.89311 34.1522 0.833332 34.1667H0V35.8334H0.833332C4.23989 35.8228 7.09978 38.3963 7.44749 41.785C6.63759 42.2567 5.93593 42.8936 5.38832 43.6542C3.88635 42.3709 1.97552 41.6661 0 41.6667V43.3333C3.6802 43.3375 6.66249 46.3198 6.66665 50H8.33332C8.33425 48.1541 7.71832 46.3607 6.58332 44.905C7.07801 44.0853 7.79675 43.4243 8.65498 43C8.66332 43 8.67248 43 8.68082 42.9917C9.35206 42.6676 10.0879 42.4996 10.8333 42.5C12.4484 42.5075 13.9608 43.293 14.8958 44.61C14.4223 45.5001 14.1721 46.4919 14.1666 47.5H15.8333C15.8326 46.648 16.0733 45.8133 16.5275 45.0925H16.5225C16.5341 45.0767 16.55 45.065 16.5616 45.0483C17.6878 43.3933 19.8343 42.7774 21.6666 43.5833V45.7667H23.3333V39.1H21.6666V39.1Z" fill="white"/>
<path d="M49.1666 35.8334H49.9999V34.1667H49.1666C45.1068 34.1522 41.6337 37.0797 40.9608 41.0833C40.3771 40.9175 39.7734 40.8333 39.1666 40.8333C37.1989 40.8386 35.3333 41.71 34.0666 43.2158C32.5562 41.7342 30.3569 41.1965 28.3333 41.8142V39.0975H26.6666V45.7642H28.3333V43.5833C30.1655 42.7772 32.3119 43.3928 33.4383 45.0475C33.4499 45.0642 33.4658 45.0758 33.4774 45.0917H33.4724C33.9268 45.8127 34.1674 46.6477 34.1666 47.5H35.8333C35.8279 46.4919 35.5776 45.5001 35.1041 44.61C36.0391 43.293 37.5515 42.5075 39.1666 42.5C39.9121 42.5001 40.648 42.6688 41.3191 42.9933C41.3274 42.9975 41.3366 42.9983 41.3449 43.0017C42.2044 43.4249 42.9247 44.0853 43.4208 44.905C42.2842 46.3602 41.6668 48.1535 41.6666 50H43.3333C43.3374 46.3198 46.3197 43.3375 49.9999 43.3333V41.6667C48.0244 41.6663 46.1137 42.3711 44.6116 43.6542C44.064 42.8936 43.3623 42.2567 42.5524 41.785C42.9002 38.3962 45.76 35.8228 49.1666 35.8334Z" fill="white"/>
<path d="M22.4999 24.1667H20.8333V25.8334H22.4999V24.1667Z" fill="white"/>
<path d="M25.8333 24.1667H24.1666V25.8334H25.8333V24.1667Z" fill="white"/>
<path d="M29.1666 24.1667H27.4999V25.8334H29.1666V24.1667Z" fill="white"/>
<path d="M10.8333 44.1667H9.16666V45.8334H10.8333V44.1667Z" fill="white"/>
<path d="M1.66666 30.8334H0V32.5H1.66666V30.8334Z" fill="white"/>
<path d="M48.3333 38.3334H46.6666V40H48.3333V38.3334Z" fill="white"/>
<path d="M41.6666 35H39.9999V36.6667H41.6666V35Z" fill="white"/>
<path d="M32.4999 48.3333H30.8333V50H32.4999V48.3333Z" fill="white"/>
<path d="M49.9999 29.1667H48.3332V30.8334H49.9999V29.1667Z" fill="white"/>
</g>
<defs>
<clipPath id="clip0">
<rect width="50" height="50" fill="white"/>
</clipPath>
</defs>
</svg>
