<svg width="513" height="513" viewBox="0 0 513 513" fill="none" xmlns="http://www.w3.org/2000/svg">
<g clip-path="url(#clip0)">
<path d="M335.446 361.939V300.15H176.558V361.939L256.002 432.556L335.446 361.939Z" fill="#E6AF78"/>
<path d="M458.286 390.843L349.057 365.142C347.407 364.754 345.89 364.095 344.47 363.296L256.001 414.903L170.982 360.8C168.781 362.872 166.049 364.412 162.946 365.143L53.717 390.844C37.767 394.597 26.495 408.829 26.495 425.214V494.348C26.495 504.099 34.399 512.002 44.149 512.002H467.851C477.602 512.002 485.505 504.098 485.505 494.348V425.214C485.507 408.828 474.235 394.595 458.286 390.843Z" fill="#4F82F5"/>
<path d="M176.558 300.15V365.343C276.636 401.4 335.446 311.158 335.446 311.158V300.149H176.558V300.15Z" fill="#D29B6E"/>
<path d="M141.249 97.127L148.941 266.355C149.659 282.164 157.411 296.825 170.071 306.32L206.569 333.694C215.737 340.569 226.887 344.287 238.347 344.287H273.656C285.116 344.287 296.266 340.57 305.434 333.694L341.932 306.32C354.592 296.824 362.344 282.165 363.062 266.355L370.754 97.127C370.753 97.127 141.249 97.127 141.249 97.127Z" fill="#F0C087"/>
<path d="M229.521 132.435C264.83 132.435 317.792 123.608 330.354 97.126H141.249L148.941 266.354C149.659 282.163 157.411 296.823 170.072 306.319L206.57 333.693C215.738 340.568 226.888 344.286 238.348 344.286H256.002C238.348 344.286 203.039 308.977 203.039 264.842C203.039 243.256 203.039 185.398 203.039 158.916C203.039 150.089 211.866 132.435 229.521 132.435Z" fill="#E6AF78"/>
<path d="M91.3 454.714L34.101 403.332C29.308 409.401 26.498 417.038 26.498 425.214V494.348C26.498 504.099 34.402 512.002 44.152 512.002H105.942V487.548C105.941 475.021 100.618 463.084 91.3 454.714Z" fill="#6D96F2" fill-opacity="0.71"/>
<path d="M420.705 454.714L477.904 403.332C482.697 409.401 485.507 417.038 485.507 425.214V494.348C485.507 504.099 477.603 512.002 467.853 512.002H406.063V487.548C406.063 475.021 411.386 463.084 420.705 454.714Z" fill="#6D96F2" fill-opacity="0.71"/>
<path d="M278.07 512.001H233.934L239.451 432.556H272.553L278.07 512.001Z" fill="#F9A08D"/>
<path d="M278.07 414.902H233.934V431.515C233.934 436.966 238.352 441.384 243.803 441.384H268.2C273.651 441.384 278.069 436.966 278.069 431.515V414.902H278.07Z" fill="#F9A08D"/>
<path d="M175.319 342.287L256.003 414.902C256.003 414.902 233.407 426.309 205.523 449.3C199.771 454.042 191.07 452.121 187.985 445.334L150.078 361.94L162.07 343.953C165.054 339.473 171.318 338.687 175.319 342.287Z" fill="#E4EAF6"/>
<path d="M336.686 342.287L256.002 414.902C256.002 414.902 278.598 426.309 306.482 449.3C312.234 454.042 320.935 452.121 324.02 445.334L361.927 361.94L349.935 343.953C346.95 339.473 340.686 338.687 336.686 342.287Z" fill="#E4EAF6"/>
<path d="M309.516 38.647L317.791 97.127C355.566 104.682 361.01 163.964 361.794 180.896C361.936 183.969 362.917 186.936 364.584 189.521L378.997 211.879C378.997 211.879 374.064 174.915 396.651 150.089C396.652 150.089 404.408 3.338 309.516 38.647Z" fill="#785550"/>
<path d="M387.851 208.115L377.886 247.976C376.705 252.701 372.461 256.014 367.59 256.014C362.237 256.014 357.723 252.029 357.059 246.718L351.962 205.948C350.598 195.035 359.106 185.397 370.104 185.397H370.112C382.008 185.398 390.736 196.575 387.851 208.115Z" fill="#F0C087"/>
<path d="M149.709 22.831L162.765 31.75C103.734 75.334 114.767 150.089 114.767 150.089C132.421 167.743 132.421 211.879 132.421 211.879L150.075 194.225C150.075 194.225 143.262 143.227 176.556 123.608C207.451 105.402 234.484 114.781 262.069 114.781C335.996 114.781 356.685 86.92 353.099 52.991C351.243 35.435 324.401 -1.13499 256.001 0.0280113C228.397 0.497011 176.558 8.85501 149.709 22.831Z" fill="#694B4B"/>
<path d="M144.559 107.057C144.559 107.057 135.18 70.093 162.765 31.751C103.734 75.335 114.767 150.09 114.767 150.09C132.421 167.744 132.421 211.88 132.421 211.88L150.075 194.226C150.075 194.226 143.262 143.228 176.556 123.609C207.451 105.403 234.484 114.782 262.069 114.782C274.092 114.782 284.569 113.977 293.901 112.597C236.969 114.505 203.408 71.38 144.559 107.057Z" fill="#5A4146"/>
<path d="M124.153 208.115L134.118 247.976C135.299 252.701 139.543 256.014 144.414 256.014C149.767 256.014 154.281 252.029 154.945 246.718L160.042 205.948C161.406 195.035 152.898 185.397 141.9 185.397H141.892C129.996 185.398 121.268 196.575 124.153 208.115Z" fill="#E6AF78"/>
<path d="M370.755 494.346H308.965C304.09 494.346 300.138 498.298 300.138 503.173V512H379.582V503.173C379.582 498.299 375.629 494.346 370.755 494.346Z" fill="#E4EAF6"/>
</g>
<defs>
<clipPath id="clip0">
<rect width="512.003" height="512.003" fill="white"/>
</clipPath>
</defs>
</svg>
