<svg width="50" height="50" viewBox="0 0 50 50" fill="none" xmlns="http://www.w3.org/2000/svg">
<path d="M24.9128 6.35352C25.4559 6.35352 25.8963 5.91318 25.8963 5.37002V0.983496C25.8963 0.440332 25.4559 0 24.9128 0C24.3696 0 23.9293 0.440332 23.9293 0.983496V5.37002C23.9294 5.91318 24.3697 6.35352 24.9128 6.35352Z" fill="white"/>
<path d="M48.9532 33.7876L47.2158 32.0551C46.5977 31.4378 45.774 31.0977 44.8962 31.0977C44.335 31.0977 43.7962 31.2374 43.3188 31.499L40.0448 28.2289L40.2042 28.0696C41.5325 26.7388 41.532 24.5762 40.2041 23.2498C39.7296 22.7744 39.1375 22.4574 38.4921 22.324C38.581 22.0173 38.6278 21.696 38.6278 21.3672C38.6278 20.4536 38.2729 19.597 37.6305 18.9572C37.1559 18.4818 36.5639 18.1648 35.9185 18.0314C36.0074 17.7247 36.0541 17.4035 36.0541 17.0746C36.0541 16.1609 35.6993 15.3044 35.0558 14.6637C34.5699 14.1783 33.9725 13.8711 33.3452 13.7403C33.6808 12.5834 33.3941 11.2817 32.4839 10.37C31.7263 9.61562 30.6983 9.2914 29.7076 9.39647L23.2198 8.16845C22.2303 7.98075 20.9947 7.85663 20.2147 8.56806C20.1655 8.61298 20.1153 8.66464 20.0659 8.72216C18.8565 8.28134 17.4459 8.54384 16.4775 9.51122C15.835 10.1529 15.4811 11.0092 15.4811 11.9223C15.4811 12.2512 15.5277 12.5724 15.6164 12.8792C14.9717 13.0125 14.3804 13.3291 13.9075 13.8029C13.2637 14.444 12.9087 15.2993 12.908 16.2113C12.9078 16.541 12.9545 16.8633 13.0438 17.1709C12.3988 17.3039 11.8071 17.6199 11.3327 18.0937C10.6889 18.7368 10.3344 19.5935 10.3344 20.5061C10.3344 21.2052 10.5431 21.8711 10.9298 22.4336C10.4415 22.5991 9.99427 22.8746 9.61976 23.2487C8.29066 24.5762 8.29017 26.7389 9.62064 28.0717L9.77953 28.2299L6.50511 31.4983C5.28822 30.9254 3.7889 31.14 2.7847 32.143L1.04623 33.8766C0.427869 34.4941 0.087439 35.318 0.0873413 36.1962C0.0873413 37.0745 0.427869 37.8984 1.04623 38.5161L3.21586 40.6831C3.60013 41.067 4.22289 41.0666 4.60668 40.6823C4.99056 40.298 4.99017 39.6753 4.6059 39.2915L2.43627 37.1245C2.18998 36.8785 2.05433 36.5488 2.05433 36.1963C2.05433 35.8438 2.18998 35.5142 2.43568 35.2688L4.17425 33.5351C4.60863 33.1013 5.27347 33.0366 5.77836 33.3385C5.8139 33.3919 5.85502 33.4427 5.90209 33.4898C5.98636 33.5743 6.08256 33.6391 6.1847 33.6864L16.1547 43.6418C16.2021 43.745 16.2671 43.8422 16.352 43.9271C16.4346 44.0099 16.5288 44.0738 16.6288 44.1209C16.8397 44.3593 16.9562 44.6638 16.9562 44.9886C16.9562 45.3411 16.8205 45.6707 16.5743 45.9167L14.8374 47.6515C14.3243 48.1624 13.4895 48.1623 12.9779 47.653L10.8082 45.4832C10.4242 45.0991 9.8015 45.0991 9.41742 45.4832C9.03334 45.8673 9.03334 46.4899 9.41742 46.874L11.5886 49.0454C12.2277 49.6818 13.0669 49.9999 13.9066 49.9999C14.7464 49.9999 15.5867 49.6813 16.2265 49.0443L17.9644 47.3085C18.5828 46.6908 18.9233 45.867 18.9233 44.9886C18.9233 44.3617 18.749 43.7631 18.4248 43.2469L22.11 39.5662C22.1139 39.5622 22.1178 39.5582 22.1218 39.5542C22.5438 39.118 23.7189 39.1996 24.8553 39.2785C25.6627 39.3347 26.5629 39.3971 27.4424 39.2957L31.478 43.3265C31.2165 43.8031 31.077 44.3412 31.077 44.9015C31.077 45.779 31.4175 46.6023 32.0359 47.22L33.7739 48.9558C34.3918 49.5731 35.2156 49.9132 36.0933 49.9132C36.9709 49.9132 37.7947 49.5732 38.4127 48.9558L48.9538 38.4275C49.5722 37.8099 49.9127 36.9861 49.9127 36.1078C49.9126 35.2296 49.5721 34.4057 48.9532 33.7876V33.7876ZM22.8536 10.1011L27.1199 10.9086L24.5662 13.4612C24.1712 13.2714 23.6298 12.9173 23.0359 12.3491C22.2229 11.5714 21.6413 10.6734 21.5884 10.1134C21.5883 10.1131 21.5883 10.1128 21.5883 10.1125C21.5883 10.1124 21.5882 10.1123 21.5882 10.1122C21.5844 10.072 21.5834 10.0398 21.5839 10.0153C21.7125 9.98407 22.0541 9.9494 22.8536 10.1011ZM17.8674 10.9029C18.3657 10.4052 19.1397 10.3477 19.7027 10.729C20.0217 12.0667 21.1628 13.2791 21.6762 13.7703C22.0567 14.1344 23.2775 15.2259 24.5097 15.5259C24.6764 15.7648 24.7671 16.0497 24.7671 16.3503C24.7671 16.7375 24.6182 17.0995 24.3468 17.3706C24.0762 17.6417 23.7136 17.7909 23.3257 17.7909C22.9377 17.7909 22.5751 17.6417 22.3033 17.3693L22.3032 17.3692L22.3027 17.3687L17.8673 12.9414C17.5969 12.6714 17.448 12.3094 17.448 11.9223C17.4481 11.535 17.597 11.173 17.8674 10.9029V10.9029ZM15.2975 15.1946C15.5681 14.9236 15.9303 14.7743 16.3176 14.7743C16.7054 14.7743 17.0688 14.9239 17.3411 15.196L20.9126 18.7603C21.475 19.3236 21.475 20.2402 20.9146 20.8016C20.6425 21.0725 20.2786 21.2218 19.8901 21.2218C19.5015 21.2218 19.1376 21.0725 18.8667 20.8027L18.8666 20.8026L16.1572 18.0937C16.153 18.0895 16.1484 18.0856 16.1441 18.0813L15.2964 17.2341C15.0244 16.9624 14.8747 16.5997 14.875 16.2128C14.8754 15.8271 15.0246 15.4663 15.2975 15.1946V15.1946ZM12.7227 19.4854C12.9935 19.215 13.3565 19.0661 13.745 19.0661C14.1302 19.0661 14.4901 19.2129 14.7597 19.4786L17.4775 22.1951C17.7485 22.465 17.8978 22.8266 17.8978 23.2134C17.8978 23.6 17.7485 23.9616 17.4764 24.2326C17.2057 24.5029 16.8431 24.6518 16.4553 24.6518C16.0669 24.6518 15.7032 24.5025 15.4321 24.2326L14.4468 23.2485C14.4466 23.2482 14.4463 23.248 14.4461 23.2478L12.7228 21.5266C12.4511 21.2552 12.3015 20.8927 12.3015 20.5059C12.3015 20.1193 12.4511 19.7567 12.7227 19.4854V19.4854ZM11.0098 24.6403C11.2818 24.3686 11.6453 24.219 12.0332 24.219C12.4211 24.219 12.7845 24.3685 13.0564 24.64L14.043 25.6255C14.3141 25.8954 14.4633 26.257 14.4633 26.6437C14.4633 27.0305 14.314 27.392 14.041 27.6641C13.7703 27.935 13.4078 28.0844 13.0199 28.0844C12.6319 28.0844 12.2693 27.9351 11.9967 27.6621L11.8732 27.5391C11.8715 27.5374 11.8703 27.5356 11.8687 27.5341C11.8668 27.5323 11.8649 27.5308 11.863 27.529L11.0108 26.6801C10.4484 26.1165 10.4479 25.2016 11.0098 24.6403ZM31.0522 35.8179C30.6683 35.4335 30.0455 35.4332 29.6614 35.817L28.7864 36.6909C27.9549 37.5224 26.4484 37.4177 24.9914 37.3166C23.4093 37.2066 21.7733 37.0932 20.7146 38.1801L17.092 41.7982L8.03314 32.7526L11.239 29.5525C11.7689 29.8773 12.3803 30.0515 13.0201 30.0515C13.934 30.0515 14.7911 29.6972 15.4312 29.0558C16.0756 28.4141 16.4306 27.5575 16.4306 26.6438C16.4306 26.6353 16.43 26.6269 16.43 26.6184C16.4385 26.6185 16.447 26.619 16.4555 26.619C17.3682 26.619 18.2245 26.2658 18.8656 25.6256C19.51 24.9838 19.865 24.1271 19.865 23.2136C19.865 23.2051 19.8644 23.1967 19.8644 23.1882C19.873 23.1882 19.8816 23.1888 19.8903 23.1888C20.8027 23.1888 21.6595 22.8359 22.3048 22.1933C22.9747 21.5223 23.3061 20.6389 23.2997 19.7573C23.3085 19.7574 23.3173 19.7579 23.3261 19.7579C24.2401 19.7578 25.097 19.4036 25.7381 18.7613C26.3806 18.1196 26.7345 17.2634 26.7345 16.3503C26.7345 15.7117 26.5609 15.1013 26.2371 14.5725L29.047 11.7638C29.2564 11.5553 29.5146 11.4244 29.7852 11.3704C29.8145 11.3673 29.8434 11.3626 29.872 11.3569C30.3062 11.2971 30.7621 11.431 31.0942 11.7617C31.6566 12.3251 31.6566 13.2417 31.0962 13.803L30.2405 14.6553C30.2376 14.6581 30.2346 14.6606 30.2318 14.6635L29.2461 15.6475C28.8618 16.0312 28.8614 16.654 29.2452 17.0383C29.6292 17.4226 30.2519 17.4229 30.6361 17.0391L31.4952 16.1811C31.4954 16.1809 31.4956 16.1808 31.4958 16.1806L31.6257 16.0512C32.1897 15.4924 33.1034 15.4935 33.6667 16.0561C33.9378 16.3261 34.0871 16.6877 34.0871 17.0744C34.0871 17.461 33.9378 17.8226 33.6646 18.0947L32.8039 18.9571C32.8038 18.9572 32.8037 18.9573 32.8036 18.9575L31.8181 19.9391C31.4332 20.3224 31.432 20.9451 31.8153 21.3299C32.1986 21.7147 32.8212 21.7159 33.2061 21.3327L34.1961 20.3467C34.4667 20.0756 34.8293 19.9264 35.2172 19.9264C35.6052 19.9264 35.9679 20.0756 36.2405 20.3486C36.5116 20.6186 36.6608 20.9803 36.6608 21.367C36.6608 21.7536 36.5116 22.1152 36.2389 22.3867L34.5231 24.1032C34.1391 24.4874 34.1392 25.11 34.5233 25.494C34.7154 25.686 34.9669 25.7819 35.2186 25.7819C35.4703 25.7819 35.7221 25.6858 35.9141 25.4937L36.755 24.6525C36.7598 24.6479 36.765 24.6439 36.7698 24.6391C37.0404 24.3681 37.403 24.2188 37.7909 24.2188C38.1788 24.2188 38.5414 24.3681 38.813 24.6401C39.3748 25.2014 39.3743 26.1164 38.813 26.6787L37.958 27.5327C37.9577 27.533 37.9574 27.5333 37.9571 27.5336C37.9568 27.5339 37.9565 27.5343 37.9562 27.5346L36.5992 28.8899C36.2149 29.2738 36.2145 29.8966 36.5983 30.2808C36.7904 30.4731 37.0423 30.5693 37.2942 30.5693C37.5456 30.5693 37.7972 30.4734 37.9892 30.2817L38.653 29.6187L41.8343 32.7964L32.7762 41.8434L29.5307 38.6018C29.757 38.4563 29.9735 38.2852 30.1767 38.082L31.0512 37.2086C31.4357 36.8249 31.4361 36.2021 31.0522 35.8179V35.8179ZM47.5637 37.0358L37.0226 47.5641C36.776 47.8104 36.4459 47.9461 36.0932 47.9461C35.7405 47.9461 35.4104 47.8104 35.1637 47.564L33.4257 45.8282C33.1794 45.5823 33.0438 45.2532 33.0438 44.9015C33.0438 44.55 33.1794 44.2209 33.4257 43.9749L43.9668 33.4466C44.2135 33.2002 44.5435 33.0645 44.8963 33.0645C45.2491 33.0645 45.5791 33.2002 45.8264 33.4472L47.5638 35.1797C47.8101 35.4257 47.9457 35.7552 47.9457 36.1077C47.9456 36.4603 47.81 36.7899 47.5637 37.0358V37.0358Z" fill="white"/>
<path d="M11.8533 5.52441C12.0453 5.71601 12.2967 5.81172 12.548 5.81172C12.8 5.81172 13.052 5.71543 13.2441 5.52295C13.6278 5.13847 13.6272 4.51582 13.2428 4.13213L9.65897 0.555466C9.2746 0.171775 8.65184 0.172263 8.26815 0.556833C7.88446 0.941306 7.88505 1.56396 8.26952 1.94765L11.8533 5.52441Z" fill="white"/>
<path d="M37.2775 5.81173C37.529 5.81173 37.7806 5.71583 37.9726 5.52413L41.5536 1.94737C41.9379 1.56358 41.9383 0.940827 41.5544 0.556549C41.1706 0.172272 40.5479 0.171881 40.1636 0.555768L36.5825 4.13253C36.1982 4.51632 36.1979 5.13907 36.5817 5.52335C36.7738 5.71563 37.0257 5.81173 37.2775 5.81173Z" fill="white"/>
<path d="M6.13468 42.3051C5.75392 42.6924 5.75919 43.3151 6.14659 43.6959L6.14943 43.6986C6.34054 43.8865 6.58868 43.9801 6.83673 43.9801C7.09132 43.9801 7.34591 43.8815 7.53878 43.6854C7.91954 43.298 7.9128 42.6739 7.5255 42.2932C7.13829 41.9124 6.51564 41.9178 6.13468 42.3051V42.3051Z" fill="white"/>
<path d="M33.4576 34.4011C33.6072 34.4011 33.759 34.367 33.9015 34.2952C34.3864 34.0506 34.5812 33.4592 34.3367 32.9742C34.0921 32.4893 33.5006 32.2943 33.0157 32.539L33.0102 32.5417C32.5253 32.7863 32.3332 33.3764 32.5777 33.8613C32.7504 34.2039 33.0976 34.4011 33.4576 34.4011V34.4011Z" fill="white"/>
</svg>
